<svg width="767" height="158" viewBox="0 0 767 158" fill="none" xmlns="http://www.w3.org/2000/svg">
<path d="M36.928 72L44.32 37.152C41.888 36.064 39.648 35.264 37.6 34.752C35.616 34.24 33.568 33.888 31.456 33.696C29.664 37.6 28 41.632 26.464 45.792C24.928 49.888 23.616 53.856 22.528 57.696C21.44 61.536 20.576 65.152 19.936 68.544C19.296 71.872 18.976 74.752 18.976 77.184C18.976 79.04 19.104 80.352 19.36 81.12C19.68 81.888 20 82.496 20.32 82.944C19.04 82.944 17.632 82.88 16.096 82.752C14.624 82.624 13.248 82.24 11.968 81.6C10.688 80.96 9.6 79.936 8.704 78.528C7.872 77.184 7.456 75.264 7.456 72.768C7.456 70.592 7.776 68.032 8.416 65.088C9.12 62.144 10.08 58.976 11.296 55.584C12.576 52.128 14.08 48.544 15.808 44.832C17.536 41.056 19.456 37.344 21.568 33.696C18.56 33.888 16.096 34.368 14.176 35.136C12.256 35.84 10.976 37.024 10.336 38.688C10.592 38.688 10.848 39.008 11.104 39.648C11.424 40.288 11.584 40.96 11.584 41.664C11.584 42.816 11.04 43.744 9.952 44.448C8.928 45.088 7.68 45.408 6.208 45.408C4.544 45.408 3.136 44.96 1.984 44.064C0.832 43.104 0.256 41.696 0.256 39.84C0.256 38.24 0.768 36.736 1.792 35.328C2.752 33.856 4.096 32.576 5.824 31.488C7.552 30.4 9.6 29.568 11.968 28.992C14.336 28.352 16.896 28.032 19.648 28.032C21.056 28.032 22.784 28.128 24.832 28.32C27.264 24.48 29.824 20.864 32.512 17.472C35.264 14.016 38.08 11.008 40.96 8.44799C43.84 5.824 46.752 3.776 49.696 2.304C52.64 0.767996 55.552 -5.72205e-06 58.432 -5.72205e-06C59.392 -5.72205e-06 60.576 0.0959949 61.984 0.287996C63.392 0.479998 64.672 0.831997 65.824 1.34399L50.752 72H36.928ZM50.752 6.816C47.872 8.352 44.928 11.2 41.92 15.36C38.976 19.456 36.16 24.192 33.472 29.568C35.456 29.952 37.44 30.432 39.424 31.008C41.408 31.52 43.328 32.16 45.184 32.928L50.752 6.816ZM114.836 37.248C114.836 33.984 113.684 32.352 111.38 32.352C109.652 32.352 108.148 33.216 106.868 34.944C105.588 36.672 104.596 38.752 103.892 41.184L97.3638 72H83.5398L90.5478 38.88C90.7398 38.112 90.8358 37.312 90.8358 36.48C90.8358 35.392 90.6118 34.432 90.1638 33.6C89.7798 32.704 89.0438 32.256 87.9558 32.256C86.0998 32.256 84.4998 33.152 83.1558 34.944C81.8758 36.672 80.8838 38.752 80.1798 41.184L73.6518 72H59.8277L70.0038 24H83.8278L82.7718 28.992C84.8198 26.688 86.8678 25.216 88.9158 24.576C90.9638 23.872 92.8198 23.52 94.4838 23.52C96.8518 23.52 98.8998 24.096 100.628 25.248C102.42 26.4 103.636 28.576 104.276 31.776C105.428 29.984 106.612 28.576 107.828 27.552C109.044 26.464 110.228 25.632 111.38 25.056C112.596 24.48 113.716 24.096 114.74 23.904C115.828 23.712 116.82 23.616 117.716 23.616C120.788 23.616 123.316 24.48 125.3 26.208C127.348 27.872 128.372 30.624 128.372 34.464C128.372 36.384 128.116 38.528 127.604 40.896C127.156 43.2 126.644 45.504 126.068 47.808C125.492 50.048 124.948 52.192 124.436 54.24C123.988 56.224 123.764 57.888 123.764 59.232C123.764 60.448 124.02 61.44 124.532 62.208C125.108 62.912 126.132 63.264 127.604 63.264C128.628 63.264 129.524 63.072 130.292 62.688C131.124 62.24 131.828 61.664 132.404 60.96C133.044 60.192 133.62 59.296 134.132 58.272C134.644 57.248 135.156 56.096 135.668 54.816H139.7C138.356 58.784 136.916 61.952 135.38 64.32C133.844 66.624 132.276 68.384 130.676 69.6C129.076 70.816 127.508 71.616 125.972 72C124.5 72.384 123.124 72.576 121.844 72.576C119.732 72.576 117.94 72.288 116.468 71.712C115.06 71.072 113.908 70.24 113.012 69.216C112.116 68.192 111.476 67.04 111.092 65.76C110.708 64.416 110.516 63.072 110.516 61.728C110.516 60.128 110.74 58.24 111.188 56.064C111.636 53.824 112.116 51.584 112.628 49.344C113.204 47.104 113.716 44.928 114.164 42.816C114.612 40.64 114.836 38.784 114.836 37.248ZM148.623 56.448C148.623 59.712 149.199 61.888 150.351 62.976C151.503 64 153.231 64.512 155.535 64.512C157.455 64.512 159.183 64.256 160.719 63.744C162.255 63.232 163.695 62.56 165.039 61.728C166.383 60.832 167.663 59.808 168.879 58.656C170.095 57.44 171.311 56.16 172.527 54.816H175.791C174.447 57.056 172.911 59.232 171.183 61.344C169.455 63.456 167.503 65.344 165.327 67.008C163.151 68.672 160.751 70.016 158.127 71.04C155.503 72.064 152.591 72.576 149.391 72.576C144.847 72.576 141.199 71.392 138.447 69.024C135.759 66.656 134.415 62.752 134.415 57.312C134.415 55.456 134.607 53.344 134.991 50.976C135.375 48.608 135.951 46.176 136.719 43.68C137.551 41.184 138.639 38.752 139.983 36.384C141.327 33.952 142.959 31.776 144.879 29.856C146.799 27.936 149.039 26.4 151.599 25.248C154.159 24.096 157.071 23.52 160.335 23.52C162.447 23.52 164.175 23.776 165.519 24.288C166.927 24.8 168.015 25.504 168.783 26.4C169.615 27.232 170.159 28.192 170.415 29.28C170.735 30.368 170.895 31.52 170.895 32.736C170.895 35.424 170.287 37.952 169.071 40.32C167.855 42.688 166.223 44.768 164.175 46.56C162.127 48.288 159.759 49.696 157.071 50.784C154.447 51.808 151.695 52.416 148.815 52.608C148.751 53.312 148.687 53.984 148.623 54.624C148.623 55.264 148.623 55.872 148.623 56.448ZM163.503 32.544C163.503 31.328 163.311 30.368 162.927 29.664C162.607 28.96 161.999 28.608 161.103 28.608C159.887 28.608 158.703 29.184 157.551 30.336C156.399 31.488 155.311 32.992 154.287 34.848C153.263 36.64 152.335 38.688 151.503 40.992C150.735 43.296 150.095 45.632 149.583 48C151.439 47.872 153.199 47.36 154.863 46.464C156.591 45.568 158.095 44.416 159.375 43.008C160.655 41.6 161.647 40 162.351 38.208C163.119 36.352 163.503 34.464 163.503 32.544ZM192.859 24L191.515 30.048C193.371 28.256 195.291 26.72 197.275 25.44C199.323 24.16 201.307 23.52 203.227 23.52C205.403 23.52 207.035 24.256 208.123 25.728C209.275 27.2 209.851 28.864 209.851 30.72C209.851 31.552 209.691 32.384 209.371 33.216C209.115 34.048 208.699 34.816 208.123 35.52C207.547 36.16 206.811 36.704 205.915 37.152C205.083 37.536 204.091 37.728 202.939 37.728C201.595 37.728 200.667 37.408 200.155 36.768C199.707 36.128 199.387 35.456 199.195 34.752C199.003 33.984 198.811 33.28 198.619 32.64C198.491 32 198.075 31.68 197.371 31.68C196.155 31.68 195.003 32.032 193.915 32.736C192.827 33.44 191.643 34.368 190.363 35.52L182.683 72H168.859L179.035 24H192.859ZM232.217 8.832L228.953 24H234.713L233.945 27.84H228.185L222.041 56.64C221.785 57.728 221.657 58.752 221.657 59.712C221.657 61.056 221.977 61.984 222.617 62.496C223.257 63.008 224.249 63.264 225.593 63.264C227.449 63.264 229.177 62.464 230.777 60.864C232.377 59.264 233.529 57.248 234.233 54.816H238.265C236.921 58.72 235.353 61.856 233.561 64.224C231.769 66.528 229.945 68.32 228.089 69.6C226.233 70.816 224.409 71.616 222.617 72C220.889 72.384 219.385 72.576 218.105 72.576C215.225 72.576 212.793 71.68 210.809 69.888C208.825 68.032 207.833 65.088 207.833 61.056C207.833 59.328 208.089 57.248 208.601 54.816L214.361 27.84H211.193L211.961 24H215.129L218.009 10.752L232.217 8.832ZM280.275 24L273.363 56.64C273.107 57.728 272.979 58.752 272.979 59.712C272.979 61.056 273.299 61.984 273.939 62.496C274.579 63.008 275.571 63.264 276.915 63.264C277.747 63.264 278.451 63.136 279.027 62.88C278.387 64.544 277.747 65.984 277.107 67.2C276.531 68.416 275.891 69.44 275.187 70.272C274.483 71.04 273.651 71.616 272.691 72C271.795 72.384 270.707 72.576 269.427 72.576C266.803 72.576 264.659 71.808 262.995 70.272C261.395 68.672 260.403 66.464 260.019 63.648C259.315 64.736 258.483 65.824 257.523 66.912C256.563 68 255.475 68.96 254.259 69.792C253.107 70.624 251.827 71.296 250.419 71.808C249.011 72.32 247.443 72.576 245.715 72.576C244.051 72.576 242.451 72.32 240.915 71.808C239.443 71.232 238.099 70.336 236.883 69.12C235.667 67.904 234.707 66.336 234.003 64.416C233.299 62.432 232.947 60 232.947 57.12C232.947 54.944 233.171 52.608 233.619 50.112C234.067 47.616 234.739 45.12 235.635 42.624C236.531 40.128 237.651 37.728 238.995 35.424C240.339 33.12 241.939 31.104 243.795 29.376C245.651 27.584 247.699 26.176 249.939 25.152C252.243 24.064 254.803 23.52 257.619 23.52C258.387 23.52 259.187 23.584 260.019 23.712C260.915 23.776 261.715 24 262.419 24.384C263.187 24.704 263.827 25.216 264.339 25.92C264.915 26.56 265.299 27.424 265.491 28.512L266.451 24H280.275ZM260.595 29.472C258.547 29.472 256.691 30.432 255.027 32.352C253.363 34.208 251.955 36.512 250.803 39.264C249.651 41.952 248.755 44.832 248.115 47.904C247.475 50.912 247.155 53.536 247.155 55.776C247.155 57.632 247.315 59.072 247.635 60.096C248.019 61.056 248.435 61.792 248.883 62.304C249.395 62.752 249.907 63.04 250.419 63.168C250.995 63.232 251.507 63.264 251.955 63.264C252.659 63.264 253.395 63.104 254.163 62.784C254.995 62.4 255.795 61.856 256.562 61.152C257.331 60.448 258.003 59.584 258.579 58.56C259.155 57.472 259.603 56.224 259.923 54.816L264.531 33.12C264.531 32.864 264.435 32.544 264.243 32.16C264.115 31.712 263.891 31.296 263.571 30.912C263.315 30.528 262.931 30.208 262.419 29.952C261.971 29.632 261.363 29.472 260.595 29.472ZM357.36 55.68C356.08 58.56 354.416 61.12 352.368 63.36C350.32 65.536 348.048 67.392 345.552 68.928C343.056 70.464 340.368 71.616 337.488 72.384C334.608 73.152 331.696 73.536 328.752 73.536C322.48 73.536 317.616 71.68 314.16 67.968C310.704 64.192 308.976 58.208 308.976 50.016C308.976 47.136 309.2 43.904 309.648 40.32C310.16 36.672 310.96 33.024 312.048 29.376C313.136 25.664 314.544 22.048 316.272 18.528C318 15.008 320.112 11.872 322.608 9.12C325.104 6.368 328.016 4.16 331.344 2.496C334.736 0.831995 338.576 -5.72205e-06 342.864 -5.72205e-06C344.976 -5.72205e-06 346.992 0.255995 348.912 0.767996C350.832 1.216 352.496 1.952 353.904 2.976C355.312 4 356.432 5.344 357.264 7.008C358.096 8.672 358.512 10.688 358.512 13.056C358.512 15.488 358 17.536 356.976 19.2C355.952 20.864 354.224 21.696 351.792 21.696C351.024 21.696 350.128 21.568 349.104 21.312C348.144 20.992 347.216 20.288 346.32 19.2C347.472 18.624 348.496 17.472 349.392 15.744C350.288 13.952 350.736 12.192 350.736 10.464C350.736 8.864 350.288 7.488 349.392 6.336C348.496 5.12 347.12 4.512 345.264 4.512C343.408 4.512 341.616 5.184 339.888 6.528C338.16 7.80799 336.528 9.568 334.992 11.808C333.52 13.984 332.144 16.576 330.864 19.584C329.648 22.528 328.592 25.664 327.696 28.992C326.8 32.256 326.096 35.616 325.584 39.072C325.136 42.528 324.912 45.856 324.912 49.056C324.912 51.36 325.072 53.472 325.392 55.392C325.712 57.312 326.288 58.976 327.12 60.384C327.952 61.792 329.104 62.88 330.576 63.648C332.112 64.416 334.032 64.8 336.336 64.8C339.984 64.8 343.472 63.904 346.8 62.112C350.128 60.256 352.912 57.792 355.152 54.72L357.36 55.68ZM379.905 23.52C387.969 23.52 392.065 28.544 392.193 38.592C392.449 38.656 392.801 38.688 393.249 38.688C394.337 38.688 395.521 38.528 396.801 38.208C398.145 37.888 399.457 37.472 400.737 36.96C402.081 36.384 403.361 35.744 404.577 35.04C405.857 34.336 407.009 33.632 408.033 32.928L408.897 35.52C407.041 37.504 404.609 39.2 401.601 40.608C398.657 41.952 395.457 42.912 392.001 43.488C391.617 47.968 390.753 52 389.409 55.584C388.065 59.168 386.369 62.24 384.321 64.8C382.273 67.296 379.937 69.216 377.312 70.56C374.689 71.904 371.905 72.576 368.961 72.576C366.721 72.576 364.641 72.32 362.721 71.808C360.865 71.232 359.265 70.336 357.921 69.12C356.577 67.904 355.521 66.336 354.753 64.416C353.985 62.496 353.601 60.16 353.601 57.408C353.601 55.552 353.793 53.44 354.177 51.072C354.561 48.704 355.169 46.272 356.001 43.776C356.897 41.216 358.017 38.752 359.361 36.384C360.705 33.952 362.337 31.776 364.257 29.856C366.241 27.936 368.513 26.4 371.073 25.248C373.633 24.096 376.577 23.52 379.905 23.52ZM372.801 63.552C373.953 63.552 375.105 63.072 376.257 62.112C377.473 61.088 378.561 59.712 379.521 57.984C380.545 56.192 381.441 54.08 382.209 51.648C382.977 49.216 383.553 46.592 383.937 43.776C382.913 43.52 382.209 43.04 381.825 42.336C381.505 41.568 381.345 40.704 381.345 39.744C381.345 38.4 381.601 37.312 382.113 36.48C382.689 35.584 383.425 34.976 384.321 34.656C384.193 32.672 383.841 31.296 383.265 30.528C382.753 29.696 381.889 29.28 380.673 29.28C378.945 29.28 377.313 30.24 375.777 32.16C374.241 34.016 372.897 36.32 371.745 39.072C370.593 41.76 369.665 44.64 368.961 47.712C368.257 50.72 367.905 53.408 367.905 55.776C367.905 57.376 367.969 58.688 368.097 59.712C368.289 60.672 368.577 61.44 368.961 62.016C369.345 62.592 369.857 63.008 370.497 63.264C371.137 63.456 371.905 63.552 372.801 63.552ZM424.78 37.248C424.78 33.984 423.628 32.352 421.324 32.352C419.596 32.352 418.092 33.216 416.812 34.944C415.532 36.672 414.54 38.752 413.836 41.184L407.308 72H393.484L403.66 24H417.484L416.428 28.992C418.476 26.688 420.492 25.216 422.476 24.576C424.46 23.936 426.188 23.616 427.66 23.616C430.732 23.616 433.26 24.48 435.244 26.208C437.292 27.872 438.316 30.624 438.316 34.464C438.316 36.384 438.06 38.528 437.548 40.896C437.1 43.2 436.588 45.504 436.012 47.808C435.436 50.048 434.892 52.192 434.38 54.24C433.932 56.224 433.708 57.888 433.708 59.232C433.708 60.448 433.964 61.44 434.476 62.208C435.052 62.912 436.076 63.264 437.548 63.264C438.572 63.264 439.468 63.072 440.236 62.688C441.068 62.24 441.772 61.664 442.348 60.96C442.988 60.192 443.564 59.296 444.076 58.272C444.588 57.248 445.1 56.096 445.612 54.816H449.644C448.3 58.784 446.86 61.952 445.324 64.32C443.788 66.624 442.22 68.384 440.62 69.6C439.02 70.816 437.452 71.616 435.916 72C434.444 72.384 433.068 72.576 431.788 72.576C429.676 72.576 427.884 72.288 426.412 71.712C425.004 71.072 423.852 70.24 422.956 69.216C422.06 68.192 421.42 67.04 421.036 65.76C420.652 64.416 420.46 63.072 420.46 61.728C420.46 60.128 420.684 58.24 421.132 56.064C421.58 53.824 422.06 51.584 422.572 49.344C423.148 47.104 423.66 44.928 424.108 42.816C424.556 40.64 424.78 38.784 424.78 37.248ZM486.305 54.816C483.809 57.696 481.281 60.096 478.721 62.016C476.225 63.936 473.857 65.536 471.617 66.816C470.593 67.904 469.473 68.8 468.257 69.504C467.041 70.208 465.761 70.816 464.417 71.328C463.073 71.776 461.729 72.096 460.385 72.288C459.041 72.48 457.761 72.576 456.545 72.576C454.113 72.576 452.001 72.224 450.209 71.52C448.481 70.752 447.041 69.792 445.889 68.64C444.737 67.488 443.905 66.176 443.393 64.704C442.817 63.232 442.529 61.76 442.529 60.288C442.529 58.048 443.041 56.16 444.065 54.624C445.089 53.088 446.273 52 447.617 51.36C450.305 46.56 452.577 41.824 454.433 37.152C456.289 32.416 457.953 27.68 459.425 22.944L473.633 21.024C473.889 27.232 474.145 32.256 474.401 36.096C474.657 39.936 474.881 43.072 475.073 45.504C475.265 47.872 475.425 49.824 475.553 51.36C475.681 52.832 475.745 54.368 475.745 55.968C475.745 57.376 475.617 58.592 475.361 59.616C478.113 58.016 480.417 56.416 482.273 54.816H486.305ZM454.433 54.816C454.433 55.968 454.049 57.056 453.281 58.08C452.513 59.04 451.489 59.52 450.209 59.52C449.697 59.52 449.185 59.456 448.673 59.328C448.225 59.136 447.873 58.784 447.617 58.272C447.617 60.512 448.065 62.208 448.961 63.36C449.857 64.448 451.361 64.992 453.473 64.992C454.497 64.992 455.521 64.864 456.545 64.608C457.569 64.288 458.465 63.776 459.233 63.072C460.001 62.368 460.609 61.44 461.057 60.288C461.569 59.136 461.825 57.728 461.825 56.064C461.825 54.848 461.761 53.664 461.633 52.512C461.569 51.36 461.441 49.984 461.249 48.384C461.121 46.784 460.929 44.8 460.673 42.432C460.481 40.064 460.257 37.024 460.001 33.312C459.041 36.448 457.889 39.488 456.545 42.432C455.265 45.376 453.825 48.384 452.225 51.456C452.865 51.776 453.377 52.224 453.761 52.8C454.209 53.312 454.433 53.984 454.433 54.816ZM505.873 8.832L502.609 24H508.369L507.601 27.84H501.841L495.697 56.64C495.441 57.728 495.313 58.752 495.313 59.712C495.313 61.056 495.633 61.984 496.273 62.496C496.913 63.008 497.905 63.264 499.249 63.264C501.105 63.264 502.833 62.464 504.433 60.864C506.033 59.264 507.185 57.248 507.889 54.816H511.921C510.577 58.72 509.009 61.856 507.217 64.224C505.425 66.528 503.601 68.32 501.745 69.6C499.889 70.816 498.065 71.616 496.273 72C494.545 72.384 493.041 72.576 491.761 72.576C488.881 72.576 486.449 71.68 484.465 69.888C482.481 68.032 481.489 65.088 481.489 61.056C481.489 59.328 481.745 57.248 482.257 54.816L488.017 27.84H484.849L485.617 24H488.785L491.665 10.752L505.873 8.832ZM528.203 24L526.859 30.048C528.715 28.256 530.635 26.72 532.619 25.44C534.667 24.16 536.651 23.52 538.571 23.52C540.747 23.52 542.379 24.256 543.467 25.728C544.619 27.2 545.195 28.864 545.195 30.72C545.195 31.552 545.035 32.384 544.715 33.216C544.459 34.048 544.043 34.816 543.467 35.52C542.891 36.16 542.155 36.704 541.259 37.152C540.427 37.536 539.435 37.728 538.283 37.728C536.939 37.728 536.011 37.408 535.499 36.768C535.051 36.128 534.731 35.456 534.539 34.752C534.347 33.984 534.155 33.28 533.963 32.64C533.835 32 533.419 31.68 532.715 31.68C531.499 31.68 530.347 32.032 529.259 32.736C528.171 33.44 526.987 34.368 525.707 35.52L518.027 72H504.203L514.379 24H528.203ZM588.009 24L581.097 56.64C580.841 57.728 580.713 58.752 580.713 59.712C580.713 61.056 581.033 61.984 581.673 62.496C582.313 63.008 583.305 63.264 584.649 63.264C586.505 63.264 588.073 62.464 589.353 60.864C590.697 59.264 591.721 57.248 592.425 54.816H596.457C595.113 58.72 593.577 61.856 591.849 64.224C590.185 66.528 588.457 68.32 586.665 69.6C584.937 70.816 583.241 71.616 581.577 72C579.913 72.384 578.441 72.576 577.161 72.576C574.409 72.576 572.201 71.808 570.536 70.272C568.937 68.736 567.977 66.464 567.656 63.456C566.441 65.44 565.193 67.04 563.913 68.256C562.697 69.408 561.481 70.304 560.265 70.944C559.049 71.584 557.865 72 556.713 72.192C555.561 72.448 554.473 72.576 553.449 72.576C550.569 72.576 548.137 71.68 546.153 69.888C544.169 68.032 543.177 65.088 543.177 61.056C543.177 59.328 543.433 57.248 543.945 54.816L550.473 24H564.297L557.385 56.64C557.193 57.6 557.097 58.496 557.097 59.328C557.097 60.416 557.289 61.344 557.673 62.112C558.121 62.88 558.889 63.264 559.977 63.264C561.833 63.264 563.401 62.464 564.681 60.864C565.961 59.264 566.953 57.248 567.656 54.816L574.185 24H588.009ZM618.717 38.88C619.229 37.792 619.613 36.608 619.869 35.328C620.189 34.048 620.349 32.992 620.349 32.16C620.349 29.792 619.453 28.608 617.661 28.608C615.997 28.608 614.397 29.568 612.861 31.488C611.325 33.408 609.981 35.776 608.829 38.592C607.677 41.408 606.749 44.416 606.045 47.616C605.341 50.816 604.989 53.728 604.989 56.352C604.989 59.616 605.629 61.792 606.909 62.88C608.189 63.968 609.981 64.512 612.285 64.512C614.205 64.512 615.933 64.256 617.469 63.744C619.005 63.232 620.445 62.56 621.789 61.728C623.133 60.832 624.413 59.808 625.629 58.656C626.845 57.44 628.061 56.16 629.277 54.816H632.541C631.197 57.056 629.661 59.232 627.933 61.344C626.205 63.456 624.253 65.344 622.077 67.008C619.901 68.672 617.501 70.016 614.877 71.04C612.253 72.064 609.341 72.576 606.141 72.576C601.597 72.576 597.949 71.392 595.197 69.024C592.509 66.656 591.165 62.752 591.165 57.312C591.165 55.456 591.357 53.344 591.741 50.976C592.125 48.608 592.733 46.176 593.565 43.68C594.397 41.184 595.453 38.752 596.733 36.384C598.077 33.952 599.709 31.776 601.629 29.856C603.549 27.936 605.757 26.4 608.253 25.248C610.813 24.096 613.725 23.52 616.989 23.52C619.101 23.52 620.829 23.776 622.173 24.288C623.581 24.736 624.669 25.376 625.437 26.208C626.269 26.976 626.845 27.872 627.165 28.896C627.485 29.92 627.645 30.944 627.645 31.968C627.645 34.336 627.133 36.288 626.109 37.824C625.149 39.296 623.965 40.032 622.557 40.032C622.045 40.032 621.405 39.936 620.637 39.744C619.933 39.552 619.293 39.264 618.717 38.88ZM652.873 8.832L649.609 24H655.369L654.601 27.84H648.841L642.697 56.64C642.441 57.728 642.313 58.752 642.313 59.712C642.313 61.056 642.633 61.984 643.273 62.496C643.913 63.008 644.905 63.264 646.249 63.264C648.105 63.264 649.833 62.464 651.433 60.864C653.033 59.264 654.185 57.248 654.889 54.816H658.921C657.577 58.72 656.009 61.856 654.217 64.224C652.425 66.528 650.601 68.32 648.745 69.6C646.889 70.816 645.065 71.616 643.273 72C641.545 72.384 640.041 72.576 638.761 72.576C635.881 72.576 633.449 71.68 631.465 69.888C629.481 68.032 628.489 65.088 628.489 61.056C628.489 59.328 628.745 57.248 629.257 54.816L635.017 27.84H631.849L632.617 24H635.785L638.665 10.752L652.873 8.832ZM663.299 11.232C663.299 9.12 664.035 7.328 665.507 5.856C666.979 4.32 668.771 3.55199 670.883 3.55199C672.995 3.55199 674.787 4.32 676.259 5.856C677.795 7.328 678.563 9.12 678.563 11.232C678.563 13.344 677.795 15.136 676.259 16.608C674.787 18.08 672.995 18.816 670.883 18.816C668.771 18.816 666.979 18.08 665.507 16.608C664.035 15.136 663.299 13.344 663.299 11.232ZM675.203 24L668.291 56.64C668.035 57.728 667.907 58.752 667.907 59.712C667.907 61.056 668.227 61.984 668.867 62.496C669.507 63.008 670.499 63.264 671.843 63.264C673.699 63.264 675.427 62.464 677.027 60.864C678.627 59.264 679.779 57.248 680.483 54.816H684.515C683.171 58.72 681.603 61.856 679.811 64.224C678.019 66.528 676.195 68.32 674.339 69.6C672.483 70.816 670.659 71.616 668.867 72C667.139 72.384 665.635 72.576 664.355 72.576C661.475 72.576 659.043 71.68 657.059 69.888C655.075 68.032 654.083 65.088 654.083 61.056C654.083 59.328 654.339 57.248 654.851 54.816L661.379 24H675.203ZM705.405 23.52C713.469 23.52 717.565 28.544 717.693 38.592C717.949 38.656 718.301 38.688 718.749 38.688C719.837 38.688 721.021 38.528 722.301 38.208C723.645 37.888 724.957 37.472 726.237 36.96C727.581 36.384 728.861 35.744 730.077 35.04C731.357 34.336 732.509 33.632 733.533 32.928L734.397 35.52C732.541 37.504 730.109 39.2 727.101 40.608C724.157 41.952 720.957 42.912 717.501 43.488C717.117 47.968 716.253 52 714.909 55.584C713.565 59.168 711.869 62.24 709.821 64.8C707.773 67.296 705.437 69.216 702.812 70.56C700.189 71.904 697.405 72.576 694.461 72.576C692.221 72.576 690.141 72.32 688.221 71.808C686.365 71.232 684.765 70.336 683.421 69.12C682.077 67.904 681.021 66.336 680.253 64.416C679.485 62.496 679.101 60.16 679.101 57.408C679.101 55.552 679.293 53.44 679.677 51.072C680.061 48.704 680.669 46.272 681.501 43.776C682.397 41.216 683.517 38.752 684.861 36.384C686.205 33.952 687.837 31.776 689.757 29.856C691.741 27.936 694.013 26.4 696.573 25.248C699.133 24.096 702.077 23.52 705.405 23.52ZM698.301 63.552C699.453 63.552 700.605 63.072 701.757 62.112C702.973 61.088 704.061 59.712 705.021 57.984C706.045 56.192 706.941 54.08 707.709 51.648C708.477 49.216 709.053 46.592 709.437 43.776C708.413 43.52 707.709 43.04 707.325 42.336C707.005 41.568 706.845 40.704 706.845 39.744C706.845 38.4 707.101 37.312 707.613 36.48C708.189 35.584 708.925 34.976 709.821 34.656C709.693 32.672 709.341 31.296 708.765 30.528C708.253 29.696 707.389 29.28 706.173 29.28C704.445 29.28 702.813 30.24 701.277 32.16C699.741 34.016 698.397 36.32 697.245 39.072C696.093 41.76 695.165 44.64 694.461 47.712C693.757 50.72 693.405 53.408 693.405 55.776C693.405 57.376 693.469 58.688 693.597 59.712C693.789 60.672 694.077 61.44 694.461 62.016C694.845 62.592 695.357 63.008 695.997 63.264C696.637 63.456 697.405 63.552 698.301 63.552ZM750.28 37.248C750.28 33.984 749.128 32.352 746.824 32.352C745.096 32.352 743.592 33.216 742.312 34.944C741.032 36.672 740.04 38.752 739.336 41.184L732.808 72H718.984L729.16 24H742.984L741.928 28.992C743.976 26.688 745.992 25.216 747.976 24.576C749.96 23.936 751.688 23.616 753.16 23.616C756.232 23.616 758.76 24.48 760.744 26.208C762.792 27.872 763.816 30.624 763.816 34.464C763.816 36.384 763.56 38.528 763.048 40.896C762.6 43.2 762.088 45.504 761.512 47.808C760.936 50.048 760.392 52.192 759.88 54.24C759.432 56.224 759.208 57.888 759.208 59.232C759.208 60.448 759.464 61.44 759.976 62.208C760.552 62.912 761.576 63.264 763.048 63.264C764.584 63.264 765.64 63.072 766.216 62.688C765.768 66.144 764.52 68.672 762.472 70.272C760.488 71.808 758.216 72.576 755.656 72.576C753.8 72.576 752.232 72.288 750.952 71.712C749.736 71.072 748.744 70.24 747.976 69.216C747.272 68.192 746.76 67.04 746.44 65.76C746.12 64.416 745.96 63.072 745.96 61.728C745.96 60.128 746.184 58.24 746.632 56.064C747.08 53.824 747.56 51.584 748.072 49.344C748.648 47.104 749.16 44.928 749.608 42.816C750.056 40.64 750.28 38.784 750.28 37.248ZM53.536 95.52C53.536 98.336 52.832 100.672 51.424 102.528C50.016 104.32 48.096 105.216 45.664 105.216C43.872 105.216 42.4 104.544 41.248 103.2C42.528 102.432 43.552 101.28 44.32 99.744C45.152 98.144 45.568 96.544 45.568 94.944C45.568 93.28 45.056 91.808 44.032 90.528C43.008 89.248 41.152 88.608 38.464 88.608C35.776 88.608 33.632 89.344 32.032 90.816C30.432 92.224 29.632 94.368 29.632 97.248C29.632 99.616 30.144 101.696 31.168 103.488C32.256 105.216 33.6 106.88 35.2 108.48C36.8 110.016 38.528 111.584 40.384 113.184C42.304 114.72 44.064 116.48 45.664 118.464C47.264 120.384 48.576 122.592 49.6 125.088C50.688 127.584 51.232 130.56 51.232 134.016C51.232 138.048 50.464 141.568 48.928 144.576C47.456 147.52 45.472 149.984 42.976 151.968C40.48 153.888 37.6 155.328 34.336 156.288C31.072 157.248 27.712 157.728 24.256 157.728C21.504 157.728 18.88 157.44 16.384 156.864C13.952 156.288 11.808 155.36 9.952 154.08C8.096 152.736 6.624 151.04 5.536 148.992C4.448 146.944 3.904 144.448 3.904 141.504C3.904 138.944 4.32 136.672 5.152 134.688C5.984 132.704 7.072 131.072 8.416 129.792C9.76 128.448 11.264 127.456 12.928 126.816C14.656 126.112 16.352 125.76 18.016 125.76C18.848 125.76 19.712 125.856 20.608 126.048C21.568 126.24 22.432 126.592 23.2 127.104C24.032 127.552 24.736 128.192 25.312 129.024C25.888 129.856 26.272 130.88 26.464 132.096C25.12 132.096 23.776 132.288 22.432 132.672C21.088 132.992 19.872 133.536 18.784 134.304C17.696 135.008 16.8 135.968 16.096 137.184C15.392 138.336 15.04 139.744 15.04 141.408C15.04 143.84 15.84 145.888 17.44 147.552C19.104 149.216 21.472 150.048 24.544 150.048C27.808 150.048 30.464 148.992 32.512 146.88C34.56 144.704 35.584 141.6 35.584 137.568C35.584 134.816 35.104 132.352 34.144 130.176C33.184 127.936 31.968 125.888 30.496 124.032C29.024 122.112 27.424 120.288 25.696 118.56C24.032 116.768 22.464 115.008 20.992 113.28C19.52 111.488 18.304 109.632 17.344 107.712C16.384 105.728 15.904 103.552 15.904 101.184C15.904 98.688 16.48 96.384 17.632 94.272C18.784 92.16 20.352 90.368 22.336 88.896C24.32 87.36 26.656 86.176 29.344 85.344C32.096 84.448 35.008 84 38.08 84C39.232 84 40.672 84.128 42.4 84.384C44.128 84.576 45.824 85.056 47.488 85.824C49.152 86.592 50.56 87.744 51.712 89.28C52.928 90.816 53.536 92.896 53.536 95.52ZM81.1233 107.52C89.1873 107.52 93.2833 112.544 93.4113 122.592C93.6673 122.656 94.0193 122.688 94.4673 122.688C95.5553 122.688 96.7393 122.528 98.0193 122.208C99.3633 121.888 100.675 121.472 101.955 120.96C103.299 120.384 104.579 119.744 105.795 119.04C107.075 118.336 108.227 117.632 109.251 116.928L110.115 119.52C108.259 121.504 105.827 123.2 102.819 124.608C99.8753 125.952 96.6753 126.912 93.2193 127.488C92.8353 131.968 91.9713 136 90.6273 139.584C89.2833 143.168 87.5873 146.24 85.5393 148.8C83.4913 151.296 81.1553 153.216 78.5312 154.56C75.9073 155.904 73.1233 156.576 70.1793 156.576C67.9393 156.576 65.8593 156.32 63.9393 155.808C62.0833 155.232 60.4833 154.336 59.1393 153.12C57.7953 151.904 56.7393 150.336 55.9713 148.416C55.2033 146.496 54.8193 144.16 54.8193 141.408C54.8193 139.552 55.0113 137.44 55.3953 135.072C55.7793 132.704 56.3873 130.272 57.2193 127.776C58.1153 125.216 59.2353 122.752 60.5793 120.384C61.9233 117.952 63.5553 115.776 65.4753 113.856C67.4593 111.936 69.7313 110.4 72.2913 109.248C74.8513 108.096 77.7953 107.52 81.1233 107.52ZM74.0193 147.552C75.1713 147.552 76.3233 147.072 77.4753 146.112C78.6913 145.088 79.7793 143.712 80.7393 141.984C81.7633 140.192 82.6593 138.08 83.4273 135.648C84.1953 133.216 84.7713 130.592 85.1553 127.776C84.1313 127.52 83.4273 127.04 83.0433 126.336C82.7233 125.568 82.5633 124.704 82.5633 123.744C82.5633 122.4 82.8193 121.312 83.3313 120.48C83.9073 119.584 84.6433 118.976 85.5393 118.656C85.4113 116.672 85.0593 115.296 84.4833 114.528C83.9713 113.696 83.1073 113.28 81.8913 113.28C80.1633 113.28 78.5313 114.24 76.9953 116.16C75.4593 118.016 74.1153 120.32 72.9633 123.072C71.8113 125.76 70.8833 128.64 70.1793 131.712C69.4753 134.72 69.1233 137.408 69.1233 139.776C69.1233 141.376 69.1873 142.688 69.3153 143.712C69.5073 144.672 69.7953 145.44 70.1793 146.016C70.5633 146.592 71.0753 147.008 71.7153 147.264C72.3553 147.456 73.1233 147.552 74.0193 147.552ZM122.831 88.8L111.791 140.64C111.535 141.728 111.407 142.752 111.407 143.712C111.407 145.056 111.727 145.984 112.367 146.496C113.007 147.008 113.999 147.264 115.343 147.264C117.199 147.264 118.927 146.464 120.527 144.864C122.127 143.264 123.279 141.248 123.983 138.816H128.015C126.671 142.72 125.103 145.856 123.311 148.224C121.519 150.528 119.695 152.32 117.839 153.6C115.983 154.816 114.159 155.616 112.367 156C110.639 156.384 109.135 156.576 107.855 156.576C104.975 156.576 102.543 155.68 100.559 153.888C98.5748 152.032 97.5828 149.088 97.5828 145.056C97.5828 143.328 97.8388 141.248 98.3508 138.816L108.623 90.72L122.831 88.8ZM168.009 108L161.097 140.64C160.841 141.728 160.713 142.752 160.713 143.712C160.713 145.056 161.033 145.984 161.673 146.496C162.313 147.008 163.305 147.264 164.649 147.264C166.505 147.264 168.073 146.464 169.353 144.864C170.697 143.264 171.721 141.248 172.425 138.816H176.457C175.113 142.72 173.577 145.856 171.849 148.224C170.185 150.528 168.457 152.32 166.665 153.6C164.937 154.816 163.241 155.616 161.577 156C159.913 156.384 158.441 156.576 157.161 156.576C154.409 156.576 152.201 155.808 150.536 154.272C148.937 152.736 147.977 150.464 147.656 147.456C146.441 149.44 145.193 151.04 143.913 152.256C142.697 153.408 141.481 154.304 140.265 154.944C139.049 155.584 137.865 156 136.713 156.192C135.561 156.448 134.473 156.576 133.449 156.576C130.569 156.576 128.137 155.68 126.153 153.888C124.169 152.032 123.177 149.088 123.177 145.056C123.177 143.328 123.433 141.248 123.945 138.816L130.473 108H144.297L137.385 140.64C137.193 141.6 137.097 142.496 137.097 143.328C137.097 144.416 137.289 145.344 137.673 146.112C138.121 146.88 138.889 147.264 139.977 147.264C141.833 147.264 143.401 146.464 144.681 144.864C145.961 143.264 146.953 141.248 147.656 138.816L154.185 108H168.009ZM196.029 92.832L192.765 108H198.525L197.757 111.84H191.997L185.853 140.64C185.597 141.728 185.469 142.752 185.469 143.712C185.469 145.056 185.789 145.984 186.429 146.496C187.069 147.008 188.061 147.264 189.405 147.264C191.261 147.264 192.989 146.464 194.589 144.864C196.189 143.264 197.341 141.248 198.045 138.816H202.077C200.733 142.72 199.165 145.856 197.373 148.224C195.581 150.528 193.757 152.32 191.901 153.6C190.045 154.816 188.221 155.616 186.429 156C184.701 156.384 183.197 156.576 181.917 156.576C179.037 156.576 176.605 155.68 174.621 153.888C172.637 152.032 171.645 149.088 171.645 145.056C171.645 143.328 171.901 141.248 172.413 138.816L178.173 111.84H175.005L175.773 108H178.941L181.821 94.752L196.029 92.832ZM206.455 95.232C206.455 93.12 207.191 91.328 208.663 89.856C210.135 88.32 211.927 87.552 214.039 87.552C216.151 87.552 217.943 88.32 219.415 89.856C220.951 91.328 221.719 93.12 221.719 95.232C221.719 97.344 220.951 99.136 219.415 100.608C217.943 102.08 216.151 102.816 214.039 102.816C211.927 102.816 210.135 102.08 208.663 100.608C207.191 99.136 206.455 97.344 206.455 95.232ZM218.359 108L211.447 140.64C211.191 141.728 211.063 142.752 211.063 143.712C211.063 145.056 211.383 145.984 212.023 146.496C212.663 147.008 213.655 147.264 214.999 147.264C216.855 147.264 218.583 146.464 220.183 144.864C221.783 143.264 222.935 141.248 223.639 138.816H227.671C226.327 142.72 224.759 145.856 222.967 148.224C221.175 150.528 219.351 152.32 217.495 153.6C215.639 154.816 213.815 155.616 212.023 156C210.295 156.384 208.791 156.576 207.511 156.576C204.631 156.576 202.199 155.68 200.215 153.888C198.231 152.032 197.239 149.088 197.239 145.056C197.239 143.328 197.495 141.248 198.007 138.816L204.535 108H218.359ZM248.561 107.52C256.625 107.52 260.721 112.544 260.849 122.592C261.105 122.656 261.457 122.688 261.905 122.688C262.993 122.688 264.177 122.528 265.457 122.208C266.801 121.888 268.113 121.472 269.393 120.96C270.737 120.384 272.017 119.744 273.233 119.04C274.513 118.336 275.665 117.632 276.689 116.928L277.553 119.52C275.697 121.504 273.265 123.2 270.257 124.608C267.313 125.952 264.113 126.912 260.657 127.488C260.273 131.968 259.409 136 258.065 139.584C256.721 143.168 255.025 146.24 252.977 148.8C250.929 151.296 248.593 153.216 245.969 154.56C243.345 155.904 240.561 156.576 237.617 156.576C235.377 156.576 233.297 156.32 231.377 155.808C229.521 155.232 227.921 154.336 226.577 153.12C225.233 151.904 224.177 150.336 223.409 148.416C222.641 146.496 222.257 144.16 222.257 141.408C222.257 139.552 222.449 137.44 222.833 135.072C223.217 132.704 223.825 130.272 224.657 127.776C225.553 125.216 226.673 122.752 228.017 120.384C229.361 117.952 230.993 115.776 232.913 113.856C234.897 111.936 237.169 110.4 239.729 109.248C242.289 108.096 245.233 107.52 248.561 107.52ZM241.457 147.552C242.609 147.552 243.761 147.072 244.913 146.112C246.129 145.088 247.217 143.712 248.177 141.984C249.201 140.192 250.097 138.08 250.865 135.648C251.633 133.216 252.209 130.592 252.593 127.776C251.569 127.52 250.865 127.04 250.481 126.336C250.161 125.568 250.001 124.704 250.001 123.744C250.001 122.4 250.257 121.312 250.769 120.48C251.345 119.584 252.081 118.976 252.977 118.656C252.849 116.672 252.497 115.296 251.921 114.528C251.409 113.696 250.545 113.28 249.329 113.28C247.601 113.28 245.969 114.24 244.433 116.16C242.897 118.016 241.553 120.32 240.401 123.072C239.249 125.76 238.321 128.64 237.617 131.712C236.913 134.72 236.561 137.408 236.561 139.776C236.561 141.376 236.625 142.688 236.753 143.712C236.945 144.672 237.233 145.44 237.617 146.016C238.001 146.592 238.513 147.008 239.153 147.264C239.793 147.456 240.561 147.552 241.457 147.552ZM293.436 121.248C293.436 117.984 292.284 116.352 289.98 116.352C288.252 116.352 286.748 117.216 285.468 118.944C284.188 120.672 283.196 122.752 282.492 125.184L275.964 156H262.14L272.316 108H286.14L285.084 112.992C287.132 110.688 289.148 109.216 291.132 108.576C293.116 107.936 294.844 107.616 296.316 107.616C299.388 107.616 301.916 108.48 303.9 110.208C305.948 111.872 306.972 114.624 306.972 118.464C306.972 120.384 306.716 122.528 306.204 124.896C305.756 127.2 305.244 129.504 304.668 131.808C304.092 134.048 303.548 136.192 303.036 138.24C302.588 140.224 302.364 141.888 302.364 143.232C302.364 144.448 302.62 145.44 303.132 146.208C303.708 146.912 304.732 147.264 306.204 147.264C307.228 147.264 308.124 147.072 308.892 146.688C309.724 146.24 310.428 145.664 311.004 144.96C311.644 144.192 312.22 143.296 312.732 142.272C313.244 141.248 313.756 140.096 314.268 138.816H318.3C316.956 142.784 315.516 145.952 313.98 148.32C312.444 150.624 310.876 152.384 309.276 153.6C307.676 154.816 306.108 155.616 304.572 156C303.1 156.384 301.724 156.576 300.444 156.576C298.332 156.576 296.54 156.288 295.068 155.712C293.66 155.072 292.508 154.24 291.612 153.216C290.716 152.192 290.076 151.04 289.692 149.76C289.308 148.416 289.116 147.072 289.116 145.728C289.116 144.128 289.34 142.24 289.788 140.064C290.236 137.824 290.716 135.584 291.228 133.344C291.804 131.104 292.316 128.928 292.764 126.816C293.212 124.64 293.436 122.784 293.436 121.248ZM342.289 105.024C342.545 111.232 342.801 116.256 343.057 120.096C343.313 123.936 343.537 127.072 343.729 129.504C343.921 131.872 344.081 133.824 344.209 135.36C344.337 136.832 344.401 138.368 344.401 139.968C344.401 143.104 343.761 145.728 342.481 147.84C341.265 149.952 339.697 151.68 337.777 153.024C335.857 154.304 333.777 155.232 331.537 155.808C329.297 156.32 327.185 156.576 325.201 156.576C322.769 156.576 320.657 156.224 318.865 155.52C317.137 154.752 315.697 153.792 314.545 152.64C313.393 151.488 312.561 150.176 312.049 148.704C311.473 147.232 311.185 145.76 311.185 144.288C311.185 142.048 311.697 140.16 312.721 138.624C313.745 137.088 314.929 136 316.273 135.36C318.961 130.56 321.233 125.824 323.089 121.152C324.945 116.416 326.609 111.68 328.081 106.944L342.289 105.024ZM323.089 138.816C323.089 139.968 322.705 141.056 321.937 142.08C321.169 143.04 320.145 143.52 318.865 143.52C318.353 143.52 317.841 143.456 317.329 143.328C316.881 143.136 316.529 142.784 316.273 142.272C316.273 144.512 316.721 146.208 317.617 147.36C318.513 148.448 320.017 148.992 322.129 148.992C323.153 148.992 324.177 148.864 325.201 148.608C326.225 148.288 327.121 147.776 327.889 147.072C328.657 146.368 329.265 145.44 329.713 144.288C330.225 143.136 330.481 141.728 330.481 140.064C330.481 138.848 330.417 137.664 330.289 136.512C330.225 135.36 330.097 133.984 329.905 132.384C329.777 130.784 329.585 128.8 329.329 126.432C329.137 124.064 328.913 121.024 328.657 117.312C327.697 120.448 326.545 123.488 325.201 126.432C323.921 129.376 322.481 132.384 320.881 135.456C321.521 135.776 322.033 136.224 322.417 136.8C322.865 137.312 323.089 137.984 323.089 138.816Z" fill="#C9875A"/>
</svg>
