<svg width="161" height="83" viewBox="0 0 161 83" fill="none" xmlns="http://www.w3.org/2000/svg">
<path d="M36.928 72L44.32 37.152C41.888 36.064 39.648 35.264 37.6 34.752C35.616 34.24 33.568 33.888 31.456 33.696C29.664 37.6 28 41.632 26.464 45.792C24.928 49.888 23.616 53.856 22.528 57.696C21.44 61.536 20.576 65.152 19.936 68.544C19.296 71.872 18.976 74.752 18.976 77.184C18.976 79.04 19.104 80.352 19.36 81.12C19.68 81.888 20 82.496 20.32 82.944C19.04 82.944 17.632 82.88 16.096 82.752C14.624 82.624 13.248 82.24 11.968 81.6C10.688 80.96 9.6 79.936 8.704 78.528C7.872 77.184 7.456 75.264 7.456 72.768C7.456 70.592 7.776 68.032 8.416 65.088C9.12 62.144 10.08 58.976 11.296 55.584C12.576 52.128 14.08 48.544 15.808 44.832C17.536 41.056 19.456 37.344 21.568 33.696C18.56 33.888 16.096 34.368 14.176 35.136C12.256 35.84 10.976 37.024 10.336 38.688C10.592 38.688 10.848 39.008 11.104 39.648C11.424 40.288 11.584 40.96 11.584 41.664C11.584 42.816 11.04 43.744 9.952 44.448C8.928 45.088 7.68 45.408 6.208 45.408C4.544 45.408 3.136 44.96 1.984 44.064C0.832 43.104 0.256 41.696 0.256 39.84C0.256 38.24 0.768 36.736 1.792 35.328C2.752 33.856 4.096 32.576 5.824 31.488C7.552 30.4 9.6 29.568 11.968 28.992C14.336 28.352 16.896 28.032 19.648 28.032C21.056 28.032 22.784 28.128 24.832 28.32C27.264 24.48 29.824 20.864 32.512 17.472C35.264 14.016 38.08 11.008 40.96 8.44799C43.84 5.824 46.752 3.776 49.696 2.304C52.64 0.767996 55.552 -5.72205e-06 58.432 -5.72205e-06C59.392 -5.72205e-06 60.576 0.0959949 61.984 0.287996C63.392 0.479998 64.672 0.831997 65.824 1.34399L50.752 72H36.928ZM50.752 6.816C47.872 8.352 44.928 11.2 41.92 15.36C38.976 19.456 36.16 24.192 33.472 29.568C35.456 29.952 37.44 30.432 39.424 31.008C41.408 31.52 43.328 32.16 45.184 32.928L50.752 6.816ZM114.548 55.68C113.268 58.56 111.604 61.12 109.556 63.36C107.508 65.536 105.236 67.392 102.74 68.928C100.244 70.464 97.5558 71.616 94.6758 72.384C91.7958 73.152 88.8838 73.536 85.9398 73.536C79.6678 73.536 74.8038 71.68 71.3478 67.968C67.8918 64.192 66.1638 58.208 66.1638 50.016C66.1638 47.136 66.3878 43.904 66.8358 40.32C67.3478 36.672 68.1478 33.024 69.2358 29.376C70.3238 25.664 71.7318 22.048 73.4598 18.528C75.1878 15.008 77.2998 11.872 79.7958 9.12C82.2918 6.368 85.2038 4.16 88.5318 2.496C91.9238 0.831995 95.7638 -5.72205e-06 100.052 -5.72205e-06C102.164 -5.72205e-06 104.18 0.255995 106.1 0.767996C108.02 1.216 109.684 1.952 111.092 2.976C112.5 4 113.62 5.344 114.452 7.008C115.284 8.672 115.7 10.688 115.7 13.056C115.7 15.488 115.188 17.536 114.164 19.2C113.14 20.864 111.412 21.696 108.98 21.696C108.212 21.696 107.316 21.568 106.292 21.312C105.332 20.992 104.404 20.288 103.508 19.2C104.66 18.624 105.684 17.472 106.58 15.744C107.476 13.952 107.924 12.192 107.924 10.464C107.924 8.864 107.476 7.488 106.58 6.336C105.684 5.12 104.308 4.512 102.452 4.512C100.596 4.512 98.8038 5.184 97.0758 6.528C95.3478 7.80799 93.7158 9.568 92.1798 11.808C90.7078 13.984 89.3318 16.576 88.0518 19.584C86.8358 22.528 85.7798 25.664 84.8838 28.992C83.9878 32.256 83.2838 35.616 82.7718 39.072C82.3238 42.528 82.0998 45.856 82.0998 49.056C82.0998 51.36 82.2598 53.472 82.5798 55.392C82.8998 57.312 83.4758 58.976 84.3078 60.384C85.1398 61.792 86.2918 62.88 87.7638 63.648C89.2998 64.416 91.2198 64.8 93.5238 64.8C97.1718 64.8 100.66 63.904 103.988 62.112C107.316 60.256 110.1 57.792 112.34 54.72L114.548 55.68ZM160.036 11.52C160.036 14.336 159.332 16.672 157.924 18.528C156.516 20.32 154.596 21.216 152.164 21.216C150.372 21.216 148.9 20.544 147.748 19.2C149.028 18.432 150.052 17.28 150.82 15.744C151.652 14.144 152.068 12.544 152.068 10.944C152.068 9.27999 151.556 7.80799 150.532 6.528C149.508 5.248 147.652 4.608 144.964 4.608C142.276 4.608 140.132 5.344 138.532 6.816C136.932 8.224 136.132 10.368 136.132 13.248C136.132 15.616 136.644 17.696 137.668 19.488C138.756 21.216 140.1 22.88 141.7 24.48C143.3 26.016 145.028 27.584 146.884 29.184C148.804 30.72 150.564 32.48 152.164 34.464C153.764 36.384 155.076 38.592 156.1 41.088C157.188 43.584 157.732 46.56 157.732 50.016C157.732 54.048 156.964 57.568 155.428 60.576C153.956 63.52 151.972 65.984 149.476 67.968C146.98 69.888 144.1 71.328 140.836 72.288C137.572 73.248 134.212 73.728 130.756 73.728C128.004 73.728 125.38 73.44 122.884 72.864C120.452 72.288 118.308 71.36 116.452 70.08C114.596 68.736 113.124 67.04 112.036 64.992C110.948 62.944 110.404 60.448 110.404 57.504C110.404 54.944 110.82 52.672 111.652 50.688C112.484 48.704 113.572 47.072 114.916 45.792C116.26 44.448 117.764 43.456 119.428 42.816C121.156 42.112 122.852 41.76 124.516 41.76C125.348 41.76 126.212 41.856 127.108 42.048C128.068 42.24 128.932 42.592 129.7 43.104C130.532 43.552 131.236 44.192 131.812 45.024C132.388 45.856 132.772 46.88 132.964 48.096C131.62 48.096 130.276 48.288 128.932 48.672C127.588 48.992 126.372 49.536 125.284 50.304C124.196 51.008 123.3 51.968 122.596 53.184C121.892 54.336 121.54 55.744 121.54 57.408C121.54 59.84 122.34 61.888 123.94 63.552C125.604 65.216 127.972 66.048 131.044 66.048C134.308 66.048 136.964 64.992 139.012 62.88C141.06 60.704 142.084 57.6 142.084 53.568C142.084 50.816 141.604 48.352 140.644 46.176C139.684 43.936 138.468 41.888 136.996 40.032C135.524 38.112 133.924 36.288 132.196 34.56C130.532 32.768 128.964 31.008 127.492 29.28C126.02 27.488 124.804 25.632 123.844 23.712C122.884 21.728 122.404 19.552 122.404 17.184C122.404 14.688 122.98 12.384 124.132 10.272C125.284 8.16 126.852 6.36799 128.836 4.89599C130.82 3.35999 133.156 2.17599 135.844 1.34399C138.596 0.447994 141.508 -5.72205e-06 144.58 -5.72205e-06C145.732 -5.72205e-06 147.172 0.127995 148.9 0.383995C150.628 0.575996 152.324 1.056 153.988 1.824C155.652 2.592 157.06 3.744 158.212 5.27999C159.428 6.816 160.036 8.896 160.036 11.52Z" fill="#C9875A"/>
</svg>
