<svg width="191" height="191" viewBox="0 0 191 191" fill="none" xmlns="http://www.w3.org/2000/svg">
<path d="M0 6C0 2.68629 2.68629 0 6 0H185C188.314 0 191 2.68629 191 6V185C191 188.314 188.314 191 185 191H6C2.68629 191 0 188.314 0 185V6Z" fill="#C9875A"/>
<path d="M48.928 132L56.32 97.152C53.888 96.064 51.648 95.264 49.6 94.752C47.616 94.24 45.568 93.888 43.456 93.696C41.664 97.6 40 101.632 38.464 105.792C36.928 109.888 35.616 113.856 34.528 117.696C33.44 121.536 32.576 125.152 31.936 128.544C31.296 131.872 30.976 134.752 30.976 137.184C30.976 139.04 31.104 140.352 31.36 141.12C31.68 141.888 32 142.496 32.32 142.944C31.04 142.944 29.632 142.88 28.096 142.752C26.624 142.624 25.248 142.24 23.968 141.6C22.688 140.96 21.6 139.936 20.704 138.528C19.872 137.184 19.456 135.264 19.456 132.768C19.456 130.592 19.776 128.032 20.416 125.088C21.12 122.144 22.08 118.976 23.296 115.584C24.576 112.128 26.08 108.544 27.808 104.832C29.536 101.056 31.456 97.344 33.568 93.696C30.56 93.888 28.096 94.368 26.176 95.136C24.256 95.84 22.976 97.024 22.336 98.688C22.592 98.688 22.848 99.008 23.104 99.648C23.424 100.288 23.584 100.96 23.584 101.664C23.584 102.816 23.04 103.744 21.952 104.448C20.928 105.088 19.68 105.408 18.208 105.408C16.544 105.408 15.136 104.96 13.984 104.064C12.832 103.104 12.256 101.696 12.256 99.84C12.256 98.24 12.768 96.736 13.792 95.328C14.752 93.856 16.096 92.576 17.824 91.488C19.552 90.4 21.6 89.568 23.968 88.992C26.336 88.352 28.896 88.032 31.648 88.032C33.056 88.032 34.784 88.128 36.832 88.32C39.264 84.48 41.824 80.864 44.512 77.472C47.264 74.016 50.08 71.008 52.96 68.448C55.84 65.824 58.752 63.776 61.696 62.304C64.64 60.768 67.552 60 70.432 60C71.392 60 72.576 60.096 73.984 60.288C75.392 60.48 76.672 60.832 77.824 61.344L62.752 132H48.928ZM62.752 66.816C59.872 68.352 56.928 71.2 53.92 75.36C50.976 79.456 48.16 84.192 45.472 89.568C47.456 89.952 49.44 90.432 51.424 91.008C53.408 91.52 55.328 92.16 57.184 92.928L62.752 66.816ZM126.548 115.68C125.268 118.56 123.604 121.12 121.556 123.36C119.508 125.536 117.236 127.392 114.74 128.928C112.244 130.464 109.556 131.616 106.676 132.384C103.796 133.152 100.884 133.536 97.9398 133.536C91.6678 133.536 86.8038 131.68 83.3478 127.968C79.8918 124.192 78.1638 118.208 78.1638 110.016C78.1638 107.136 78.3878 103.904 78.8358 100.32C79.3478 96.672 80.1478 93.024 81.2358 89.376C82.3238 85.664 83.7318 82.048 85.4598 78.528C87.1878 75.008 89.2998 71.872 91.7958 69.12C94.2918 66.368 97.2038 64.16 100.532 62.496C103.924 60.832 107.764 60 112.052 60C114.164 60 116.18 60.256 118.1 60.768C120.02 61.216 121.684 61.952 123.092 62.976C124.5 64 125.62 65.344 126.452 67.008C127.284 68.672 127.7 70.688 127.7 73.056C127.7 75.488 127.188 77.536 126.164 79.2C125.14 80.864 123.412 81.696 120.98 81.696C120.212 81.696 119.316 81.568 118.292 81.312C117.332 80.992 116.404 80.288 115.508 79.2C116.66 78.624 117.684 77.472 118.58 75.744C119.476 73.952 119.924 72.192 119.924 70.464C119.924 68.864 119.476 67.488 118.58 66.336C117.684 65.12 116.308 64.512 114.452 64.512C112.596 64.512 110.804 65.184 109.076 66.528C107.348 67.808 105.716 69.568 104.18 71.808C102.708 73.984 101.332 76.576 100.052 79.584C98.8358 82.528 97.7798 85.664 96.8838 88.992C95.9878 92.256 95.2838 95.616 94.7718 99.072C94.3238 102.528 94.0998 105.856 94.0998 109.056C94.0998 111.36 94.2598 113.472 94.5798 115.392C94.8998 117.312 95.4758 118.976 96.3078 120.384C97.1398 121.792 98.2918 122.88 99.7638 123.648C101.3 124.416 103.22 124.8 105.524 124.8C109.172 124.8 112.66 123.904 115.988 122.112C119.316 120.256 122.1 117.792 124.34 114.72L126.548 115.68ZM172.036 71.52C172.036 74.336 171.332 76.672 169.924 78.528C168.516 80.32 166.596 81.216 164.164 81.216C162.372 81.216 160.9 80.544 159.748 79.2C161.028 78.432 162.052 77.28 162.82 75.744C163.652 74.144 164.068 72.544 164.068 70.944C164.068 69.28 163.556 67.808 162.532 66.528C161.508 65.248 159.652 64.608 156.964 64.608C154.276 64.608 152.132 65.344 150.532 66.816C148.932 68.224 148.132 70.368 148.132 73.248C148.132 75.616 148.644 77.696 149.668 79.488C150.756 81.216 152.1 82.88 153.7 84.48C155.3 86.016 157.028 87.584 158.884 89.184C160.804 90.72 162.564 92.48 164.164 94.464C165.764 96.384 167.076 98.592 168.1 101.088C169.188 103.584 169.732 106.56 169.732 110.016C169.732 114.048 168.964 117.568 167.428 120.576C165.956 123.52 163.972 125.984 161.476 127.968C158.98 129.888 156.1 131.328 152.836 132.288C149.572 133.248 146.212 133.728 142.756 133.728C140.004 133.728 137.38 133.44 134.884 132.864C132.452 132.288 130.308 131.36 128.452 130.08C126.596 128.736 125.124 127.04 124.036 124.992C122.948 122.944 122.404 120.448 122.404 117.504C122.404 114.944 122.82 112.672 123.652 110.688C124.484 108.704 125.572 107.072 126.916 105.792C128.26 104.448 129.764 103.456 131.428 102.816C133.156 102.112 134.852 101.76 136.516 101.76C137.348 101.76 138.212 101.856 139.108 102.048C140.068 102.24 140.932 102.592 141.7 103.104C142.532 103.552 143.236 104.192 143.812 105.024C144.388 105.856 144.772 106.88 144.964 108.096C143.62 108.096 142.276 108.288 140.932 108.672C139.588 108.992 138.372 109.536 137.284 110.304C136.196 111.008 135.3 111.968 134.596 113.184C133.892 114.336 133.54 115.744 133.54 117.408C133.54 119.84 134.34 121.888 135.94 123.552C137.604 125.216 139.972 126.048 143.044 126.048C146.308 126.048 148.964 124.992 151.012 122.88C153.06 120.704 154.084 117.6 154.084 113.568C154.084 110.816 153.604 108.352 152.644 106.176C151.684 103.936 150.468 101.888 148.996 100.032C147.524 98.112 145.924 96.288 144.196 94.56C142.532 92.768 140.964 91.008 139.492 89.28C138.02 87.488 136.804 85.632 135.844 83.712C134.884 81.728 134.404 79.552 134.404 77.184C134.404 74.688 134.98 72.384 136.132 70.272C137.284 68.16 138.852 66.368 140.836 64.896C142.82 63.36 145.156 62.176 147.844 61.344C150.596 60.448 153.508 60 156.58 60C157.732 60 159.172 60.128 160.9 60.384C162.628 60.576 164.324 61.056 165.988 61.824C167.652 62.592 169.06 63.744 170.212 65.28C171.428 66.816 172.036 68.896 172.036 71.52Z" fill="white"/>
</svg>
